# xmcd
# Copyright (C) 1995-1998 Ti Kan
#
# Track frame offsets:
#       150
#       5590
#       20686
#       38022
#       54759
#       78156
#       82547
#       101156
#       120205
#       136057
#       141528
#       162578
#       179856
#       196286
#
# Disc length: 2852 seconds
#
# Revision: 0
# Processed by: cddbd v1.5.2PL0 Copyright (c) Steve Scherf et al.
# Submitted via: CD-Import v1.0
#
DISCID=ae0b220e
DTITLE=Bucher and Schmid - Iisziit
DYEAR=2008
DGENRE=
TTITLE0=Tagebuach (Gast: Curse)
TTITLE1=Min Weg
TTITLE2=Ein Tag
TTITLE3=Dini Iabi
TTITLE4=Borderline Queen
TTITLE5=Tagebuach 2 (Gast: Curse)
TTITLE6=Dr Langi Weg In D'höll
TTITLE7=Liabi Vergoht Nid
TTITLE8=Menschafeind
TTITLE9=Tagebuach 3 (Gast: Curse)
TTITLE10=Iisziit Reflexion
TTITLE11=Fang Mit Uf! Feat. Sbs
TTITLE12=Alai
TTITLE13=Sternschnuppa Feat. Xavier Naidoo
EXTD=
EXTT0=
EXTT1=
EXTT2=
EXTT3=
EXTT4=
EXTT5=
EXTT6=
EXTT7=
EXTT8=
EXTT9=
EXTT10=
EXTT11=
EXTT12=
EXTT13=
PLAYORDER=
